<svg width="185" height="185" viewBox="0 0 185 185" fill="none" xmlns="http://www.w3.org/2000/svg">
<rect width="184.5" height="184.5" fill="#080808"/>
<path d="M129.167 54.75C130.462 54.75 131.512 55.8002 131.512 57.0956V75.8283C131.512 77.3227 130.8 78.7287 129.596 79.6124L108.824 94.8522C107.91 95.5225 108.384 96.9708 109.517 96.9708H131.28C133.337 96.9708 135.245 98.0449 136.313 99.8037L152.712 126.829C153.506 128.137 152.564 129.809 151.035 129.809H125.448C123.391 129.809 121.482 128.735 120.415 126.976L106.009 103.238C104.582 100.886 101.446 100.263 99.2284 101.89L63.6557 127.993C62.0472 129.173 60.1045 129.809 58.1098 129.809H36.5638C33.9742 129.809 31.875 127.709 31.875 125.118V111.044C31.875 108.454 33.9742 106.353 36.5638 106.353H57.1208C59.7498 106.353 62.3029 105.469 64.3691 103.843L91.6113 82.3956C93.3602 81.0187 92.3873 78.2065 90.1621 78.206H67.9682C65.7407 78.206 64.7686 75.3895 66.5212 74.0142L87.8864 57.2491C89.9499 55.6301 92.4964 54.7502 95.1187 54.75H129.167Z" fill="#F0EFE4"/>
</svg>
